# Blender v3.4.0 OBJ File: 'HCC_Blender.blend'
# www.blender.org
mtllib Bookshelf_01.mtl
o Bookshelf_01_Cube.166
v -0.487747 0.000000 0.142224
v -0.487747 1.221658 0.142224
v -0.487747 0.000000 -0.142224
v -0.487747 1.221658 -0.142224
v 0.487747 0.000000 0.142224
v 0.487747 1.221658 0.142224
v 0.487747 0.000000 -0.142224
v 0.487747 1.221658 -0.142224
vt 0.122070 0.882812
vt 0.122070 1.000000
vt 0.094727 1.000000
vt 0.094727 0.882812
vt 0.187500 0.882812
vt 0.187500 1.000000
vt 0.093750 1.000000
vt 0.093750 0.882812
vt 0.187500 0.882812
vt 0.187500 1.000000
vt 0.160156 1.000000
vt 0.160156 0.882812
vt 0.093750 0.882812
vt 0.093750 1.000000
vt 0.000000 1.000000
vt 0.000000 0.882812
vt 0.093750 0.882812
vt 0.187500 0.910156
vt 0.093750 0.910156
vt 0.093750 1.000000
vt 0.093750 0.972656
vt 0.187500 0.972656
vn -1.0000 0.0000 0.0000
vn 0.0000 0.0000 -1.0000
vn 1.0000 0.0000 0.0000
vn 0.0000 0.0000 1.0000
vn 0.0000 -1.0000 0.0000
vn 0.0000 1.0000 0.0000
usemtl Pixel_Grid_1024.023
s off
f 1/1/1 2/2/1 4/3/1 3/4/1
f 3/5/2 4/6/2 8/7/2 7/8/2
f 7/9/3 8/10/3 6/11/3 5/12/3
f 5/13/4 6/14/4 2/15/4 1/16/4
f 3/17/5 7/9/5 5/18/5 1/19/5
f 8/10/6 4/20/6 2/21/6 6/22/6
