# Blender v3.4.0 OBJ File: 'HCC_Blender.blend'
# www.blender.org
mtllib Book_08.mtl
o Book_08_Cube.186
v -0.081831 0.000000 0.138854
v -0.081831 0.021340 0.138854
v -0.081831 0.000000 -0.138854
v -0.081831 0.021340 -0.138854
v 0.081831 0.000000 0.138854
v 0.081831 0.021340 0.138854
v 0.081831 0.000000 -0.138854
v 0.081831 0.021340 -0.138854
vt 0.159180 0.808594
vt 0.154297 0.808594
vt 0.154297 0.744141
vt 0.159180 0.744141
vt 0.116211 0.808594
vt 0.111328 0.808594
vt 0.111328 0.744141
vt 0.116211 0.744141
vt 0.116211 0.812500
vt 0.111328 0.812500
vt 0.111328 0.774414
vt 0.116211 0.774414
vt 0.116211 0.774414
vt 0.111328 0.774414
vt 0.111328 0.812500
vt 0.116211 0.812500
vt 0.154297 0.744141
vt 0.116211 0.744141
vt 0.116211 0.808594
vt 0.154297 0.808594
vt 0.197266 0.808594
vt 0.159180 0.808594
vt 0.159180 0.744141
vt 0.197266 0.744141
vn -1.0000 0.0000 0.0000
vn 1.0000 0.0000 0.0000
vn 0.0000 0.0000 -1.0000
vn 0.0000 0.0000 1.0000
vn 0.0000 -1.0000 0.0000
vn 0.0000 1.0000 0.0000
usemtl Books.009
s off
f 1/1/1 2/2/1 4/3/1 3/4/1
f 7/5/2 8/6/2 6/7/2 5/8/2
f 3/9/3 4/10/3 8/11/3 7/12/3
f 5/13/4 6/14/4 2/15/4 1/16/4
f 3/17/5 7/18/5 5/19/5 1/20/5
f 8/21/6 4/22/6 2/23/6 6/24/6
