# Blender v3.4.0 OBJ File: 'HCC_Blender.blend'
# www.blender.org
mtllib Book_24.mtl
o Book_24_Cube.253
v -0.070145 0.000000 0.111419
v -0.070145 0.060576 0.111419
v -0.070145 0.000000 -0.149585
v -0.070145 0.060576 -0.149585
v 0.094854 0.000000 0.111419
v 0.094854 0.060576 0.111419
v 0.094854 0.000000 -0.149585
v 0.094854 0.060576 -0.149585
vt 0.271484 0.511719
vt 0.257812 0.511719
vt 0.257812 0.572266
vt 0.271484 0.572266
vt 0.310547 0.507812
vt 0.324219 0.507812
vt 0.324219 0.568359
vt 0.310547 0.568359
vt 0.310547 0.572266
vt 0.324219 0.572266
vt 0.324219 0.533203
vt 0.310547 0.533203
vt 0.310547 0.533203
vt 0.324219 0.533203
vt 0.324219 0.572266
vt 0.310547 0.572266
vt 0.257812 0.572266
vt 0.218750 0.572266
vt 0.218750 0.511719
vt 0.257812 0.511719
vt 0.310547 0.572266
vt 0.271484 0.572266
vt 0.271484 0.511719
vt 0.310547 0.511719
vn -1.0000 0.0000 0.0000
vn 1.0000 0.0000 0.0000
vn 0.0000 0.0000 -1.0000
vn 0.0000 0.0000 1.0000
vn 0.0000 -1.0000 0.0000
vn 0.0000 1.0000 0.0000
usemtl Books.071
s off
f 1/1/1 2/2/1 4/3/1 3/4/1
f 7/5/2 8/6/2 6/7/2 5/8/2
f 3/9/3 4/10/3 8/11/3 7/12/3
f 5/13/4 6/14/4 2/15/4 1/16/4
f 3/17/5 7/18/5 5/19/5 1/20/5
f 8/21/6 4/22/6 2/23/6 6/24/6
