# Blender v3.4.0 OBJ File: 'HCC_Blender.blend'
# www.blender.org
mtllib Book_B_04.mtl
o Book_B_04_Cube.222
v -0.084469 0.000000 0.121935
v -0.084469 0.029559 0.121935
v -0.084469 0.000000 -0.121935
v -0.084469 0.029559 -0.121935
v 0.084469 0.000000 0.121935
v 0.084469 0.029559 0.121935
v 0.084469 0.000000 -0.121935
v 0.084469 0.029559 -0.121935
vt 0.672852 0.408203
vt 0.666016 0.408203
vt 0.666016 0.464844
vt 0.672852 0.464844
vt 0.718750 0.464844
vt 0.711914 0.464844
vt 0.711914 0.408203
vt 0.718750 0.408203
vt 0.718750 0.468750
vt 0.711914 0.468750
vt 0.711914 0.429688
vt 0.718750 0.429688
vt 0.718750 0.429688
vt 0.711914 0.429688
vt 0.711914 0.468750
vt 0.718750 0.468750
vt 0.666016 0.464844
vt 0.626953 0.464844
vt 0.626953 0.408203
vt 0.666016 0.408203
vt 0.672852 0.464844
vt 0.672852 0.408203
vn -1.0000 0.0000 0.0000
vn 1.0000 0.0000 0.0000
vn 0.0000 0.0000 -1.0000
vn 0.0000 0.0000 1.0000
vn 0.0000 -1.0000 0.0000
vn 0.0000 1.0000 0.0000
usemtl Books.041
s off
f 1/1/1 2/2/1 4/3/1 3/4/1
f 7/5/2 8/6/2 6/7/2 5/8/2
f 3/9/3 4/10/3 8/11/3 7/12/3
f 5/13/4 6/14/4 2/15/4 1/16/4
f 3/17/5 7/18/5 5/19/5 1/20/5
f 8/6/6 4/21/6 2/22/6 6/7/6
