# Blender v3.4.0 OBJ File: 'HCC_Blender.blend'
# www.blender.org
mtllib Book_16.mtl
o Book_16_Cube.245
v -0.086513 0.000000 0.111335
v -0.086513 0.025296 0.111335
v -0.086513 0.000000 -0.111335
v -0.086513 0.025296 -0.111335
v 0.086515 0.000000 0.111335
v 0.086515 0.025296 0.111335
v 0.086515 0.000000 -0.111335
v 0.086515 0.025296 -0.111335
vt 0.158203 0.579102
vt 0.152344 0.579102
vt 0.152344 0.630859
vt 0.158203 0.630859
vt 0.205078 0.626953
vt 0.199219 0.626953
vt 0.199219 0.575195
vt 0.205078 0.575195
vt 0.205078 0.630859
vt 0.199219 0.630859
vt 0.199219 0.589844
vt 0.205078 0.589844
vt 0.205078 0.589844
vt 0.199219 0.589844
vt 0.199219 0.630859
vt 0.205078 0.630859
vt 0.152344 0.630859
vt 0.112305 0.630859
vt 0.112305 0.579102
vt 0.152344 0.579102
vt 0.199219 0.630859
vt 0.158203 0.630859
vt 0.158203 0.579102
vt 0.199219 0.579102
vn -1.0000 0.0000 0.0000
vn 1.0000 0.0000 0.0000
vn 0.0000 0.0000 -1.0000
vn 0.0000 0.0000 1.0000
vn 0.0000 -1.0000 0.0000
vn 0.0000 1.0000 0.0000
usemtl Books.063
s off
f 1/1/1 2/2/1 4/3/1 3/4/1
f 7/5/2 8/6/2 6/7/2 5/8/2
f 3/9/3 4/10/3 8/11/3 7/12/3
f 5/13/4 6/14/4 2/15/4 1/16/4
f 3/17/5 7/18/5 5/19/5 1/20/5
f 8/21/6 4/22/6 2/23/6 6/24/6
