# Blender v3.4.0 OBJ File: 'HCC_Blender.blend'
# www.blender.org
mtllib Book_01.mtl
o Book_01_Cube.036
v -0.096664 0.000000 0.134375
v -0.096664 0.054159 0.134375
v -0.096664 0.000000 -0.134375
v -0.096664 0.054159 -0.134375
v 0.083766 0.000000 0.134375
v 0.083766 0.054159 0.134375
v 0.083766 0.000000 -0.134375
v 0.083766 0.054159 -0.134375
v -0.083766 0.000000 -0.134375
v -0.083766 0.054159 -0.134375
v -0.083766 0.000000 0.134375
v -0.083766 0.054159 0.134375
vt 0.054688 1.000000
vt 0.042969 1.000000
vt 0.042969 0.937500
vt 0.054688 0.937500
vt 0.109375 1.000000
vt 0.096680 1.000000
vt 0.096680 0.937500
vt 0.109375 0.937500
vt 0.109375 0.936523
vt 0.096680 0.936523
vt 0.096680 0.974609
vt 0.109375 0.974609
vt 0.096680 0.936523
vt 0.109375 0.936523
vt 0.109375 0.933594
vt 0.096680 0.933594
vt 0.040039 0.937500
vt 0.000000 0.937500
vt 0.000000 1.000000
vt 0.040039 1.000000
vt 0.057617 0.937500
vt 0.054688 0.937500
vt 0.054688 1.000000
vt 0.057617 1.000000
vt 0.095703 0.937500
vt 0.095703 1.000000
vt 0.039062 0.937500
vt 0.041992 0.937500
vt 0.041992 1.000000
vt 0.039062 1.000000
vt 0.096680 0.974609
vt 0.109375 0.974609
vt 0.109375 0.933594
vt 0.096680 0.933594
vn -1.0000 0.0000 0.0000
vn 1.0000 0.0000 0.0000
vn 0.0000 0.0000 -1.0000
vn 0.0000 0.0000 1.0000
vn 0.0000 -1.0000 0.0000
vn 0.0000 1.0000 0.0000
usemtl Books
s off
f 1/1/1 2/2/1 4/3/1 3/4/1
f 7/5/2 8/6/2 6/7/2 5/8/2
f 9/9/3 10/10/3 8/11/3 7/12/3
f 11/13/4 12/14/4 2/15/4 1/16/4
f 9/17/5 7/18/5 5/19/5 11/20/5
f 10/21/6 4/22/6 2/23/6 12/24/6
f 8/25/6 10/21/6 12/24/6 6/26/6
f 3/27/5 9/28/5 11/29/5 1/30/5
f 5/31/4 6/32/4 12/14/4 11/13/4
f 3/33/3 4/34/3 10/10/3 9/9/3
