# Blender v3.4.0 OBJ File: 'HCC_Blender.blend'
# www.blender.org
mtllib Bookshelf_23_02.mtl
o Bookshelf_23_02_Cube.184
v -0.379734 0.000000 0.142224
v -0.379734 0.000000 -0.142224
v 0.379727 0.000000 -0.142224
v -0.379734 0.947563 -0.142224
v 0.379727 0.000000 0.142224
v 0.379727 0.947563 0.142224
v -0.379734 0.947563 0.142224
v 0.379727 0.947563 -0.142224
vt 0.099609 0.046875
vt 0.099609 0.139648
vt 0.072266 0.139648
vt 0.072266 0.046875
vt 0.145588 0.139648
vt 0.072244 0.139648
vt 0.072244 0.112305
vt 0.145588 0.112305
vt 0.072244 0.046875
vt 0.145588 0.046875
vt 0.145588 0.074219
vt 0.072244 0.074219
vt 0.145585 0.139715
vt 0.145585 0.232422
vt 0.072242 0.232422
vt 0.072242 0.139715
vt 0.145508 0.046875
vt 0.145508 0.139648
vt 0.118164 0.139648
vt 0.118164 0.046875
vn -1.0000 0.0000 0.0000
vn 0.0000 1.0000 0.0000
vn 0.0000 -1.0000 0.0000
vn 0.0000 0.0000 1.0000
vn 0.0000 0.0000 -1.0000
vn 1.0000 0.0000 0.0000
usemtl Pixel_Grid_1024.015
s off
f 1/1/1 7/2/1 4/3/1 2/4/1
f 8/5/2 4/6/2 7/7/2 6/8/2
f 2/9/3 3/10/3 5/11/3 1/12/3
f 5/13/4 6/14/4 7/15/4 1/16/4
f 2/9/5 4/6/5 8/5/5 3/10/5
f 3/17/6 8/18/6 6/19/6 5/20/6
