# Blender v3.4.0 OBJ File: 'HCC_Blender.blend'
# www.blender.org
mtllib Book_A_17.mtl
o Book_A_17_Cube.206
v -0.071811 -0.000000 0.107177
v -0.071811 0.021160 0.107177
v -0.071811 -0.000000 -0.107177
v -0.071811 0.021160 -0.107177
v 0.071811 -0.000000 0.107177
v 0.071811 0.021160 0.107177
v 0.071811 -0.000000 -0.107177
v 0.071811 0.021160 -0.107177
vt 0.883789 0.727539
vt 0.878906 0.727539
vt 0.878906 0.777344
vt 0.883789 0.777344
vt 0.921875 0.777344
vt 0.916992 0.777344
vt 0.916992 0.727539
vt 0.921875 0.727539
vt 0.921875 0.723633
vt 0.916992 0.723633
vt 0.916992 0.756836
vt 0.921875 0.756836
vt 0.921875 0.756836
vt 0.916992 0.756836
vt 0.916992 0.723633
vt 0.921875 0.723633
vt 0.878906 0.777344
vt 0.845703 0.777344
vt 0.845703 0.727539
vt 0.878906 0.727539
vt 0.883789 0.777344
vt 0.883789 0.727539
vn -1.0000 0.0000 0.0000
vn 1.0000 0.0000 0.0000
vn 0.0000 0.0000 -1.0000
vn 0.0000 0.0000 1.0000
vn 0.0000 -1.0000 0.0000
vn 0.0000 1.0000 0.0000
usemtl Books.025
s off
f 1/1/1 2/2/1 4/3/1 3/4/1
f 7/5/2 8/6/2 6/7/2 5/8/2
f 3/9/3 4/10/3 8/11/3 7/12/3
f 5/13/4 6/14/4 2/15/4 1/16/4
f 3/17/5 7/18/5 5/19/5 1/20/5
f 8/6/6 4/21/6 2/22/6 6/7/6
