# Blender v3.4.0 OBJ File: 'HCC_Blender.blend'
# www.blender.org
mtllib Book_23.mtl
o Book_23_Cube.252
v -0.070145 0.000000 0.111419
v -0.070145 0.034473 0.111419
v -0.070145 0.000000 -0.098977
v -0.070145 0.034473 -0.098977
v 0.070147 0.000000 0.111419
v 0.070147 0.034473 0.111419
v 0.070147 0.000000 -0.098977
v 0.070147 0.034473 -0.098977
vt 0.266602 0.574219
vt 0.258789 0.574219
vt 0.258789 0.623047
vt 0.266602 0.623047
vt 0.218750 0.574219
vt 0.226562 0.574219
vt 0.226562 0.623047
vt 0.218750 0.623047
vt 0.218750 0.626953
vt 0.226562 0.626953
vt 0.226562 0.593750
vt 0.218750 0.593750
vt 0.218750 0.593750
vt 0.226562 0.593750
vt 0.226562 0.626953
vt 0.218750 0.626953
vt 0.258789 0.623047
vt 0.225586 0.623047
vt 0.225586 0.574219
vt 0.258789 0.574219
vt 0.299805 0.623047
vt 0.266602 0.623047
vt 0.266602 0.574219
vt 0.299805 0.574219
vn -1.0000 0.0000 0.0000
vn 1.0000 0.0000 0.0000
vn 0.0000 0.0000 -1.0000
vn 0.0000 0.0000 1.0000
vn 0.0000 -1.0000 0.0000
vn 0.0000 1.0000 0.0000
usemtl Books.070
s off
f 1/1/1 2/2/1 4/3/1 3/4/1
f 7/5/2 8/6/2 6/7/2 5/8/2
f 3/9/3 4/10/3 8/11/3 7/12/3
f 5/13/4 6/14/4 2/15/4 1/16/4
f 3/17/5 7/18/5 5/19/5 1/20/5
f 8/21/6 4/22/6 2/23/6 6/24/6
