# Blender v3.4.0 OBJ File: 'HCC_Blender.blend'
# www.blender.org
mtllib Book_12.mtl
o Book_12_Cube.192
v -0.078132 0.000000 0.115559
v -0.078132 0.029461 0.115559
v -0.078132 0.000000 -0.115559
v -0.078132 0.029461 -0.115559
v 0.078132 0.000000 0.115559
v 0.078132 0.029461 0.115559
v 0.078132 0.000000 -0.115559
v 0.078132 0.029461 -0.115559
vt 0.042969 0.620117
vt 0.036133 0.620117
vt 0.036133 0.673828
vt 0.042969 0.673828
vt 0.085938 0.673828
vt 0.079102 0.673828
vt 0.079102 0.620117
vt 0.085938 0.620117
vt 0.085938 0.677734
vt 0.079102 0.677734
vt 0.079102 0.641602
vt 0.085938 0.641602
vt 0.085938 0.641602
vt 0.079102 0.641602
vt 0.079102 0.677734
vt 0.085938 0.677734
vt 0.036133 0.673828
vt 0.000000 0.673828
vt 0.000000 0.620117
vt 0.036133 0.620117
vt 0.042969 0.673828
vt 0.042969 0.620117
vn -1.0000 0.0000 0.0000
vn 1.0000 0.0000 0.0000
vn 0.0000 0.0000 -1.0000
vn 0.0000 0.0000 1.0000
vn 0.0000 -1.0000 0.0000
vn 0.0000 1.0000 0.0000
usemtl Books.012
s off
f 1/1/1 2/2/1 4/3/1 3/4/1
f 7/5/2 8/6/2 6/7/2 5/8/2
f 3/9/3 4/10/3 8/11/3 7/12/3
f 5/13/4 6/14/4 2/15/4 1/16/4
f 3/17/5 7/18/5 5/19/5 1/20/5
f 8/6/6 4/21/6 2/22/6 6/7/6
