# Blender v3.4.0 OBJ File: 'HCC_Blender.blend'
# www.blender.org
mtllib Bookshelf_03.mtl
o Bookshelf_03_Cube.156
v -0.487747 0.000000 0.142224
v -0.487747 1.304393 0.142224
v -0.487747 0.000000 -0.142224
v -0.487747 1.304393 -0.142224
v 0.487747 0.000000 0.142224
v 0.487747 1.304393 0.142224
v 0.487747 0.000000 -0.142224
v 0.487747 1.304393 -0.142224
vt 0.121094 0.660156
vt 0.121094 0.785156
vt 0.093750 0.785156
vt 0.093750 0.660156
vt 0.187500 0.660156
vt 0.187500 0.785156
vt 0.093750 0.785156
vt 0.093750 0.660156
vt 0.187500 0.660156
vt 0.187500 0.785156
vt 0.160156 0.785156
vt 0.160156 0.660156
vt 0.093750 0.660156
vt 0.093750 0.785156
vt 0.000000 0.785156
vt 0.000000 0.660156
vt 0.187500 0.687500
vt 0.093750 0.687500
vt 0.093750 0.757812
vt 0.187500 0.757812
vn -1.0000 0.0000 0.0000
vn 0.0000 0.0000 -1.0000
vn 1.0000 0.0000 0.0000
vn 0.0000 0.0000 1.0000
vn 0.0000 -1.0000 0.0000
vn 0.0000 1.0000 0.0000
usemtl Pixel_Grid_1024.003
s off
f 1/1/1 2/2/1 4/3/1 3/4/1
f 3/5/2 4/6/2 8/7/2 7/8/2
f 7/9/3 8/10/3 6/11/3 5/12/3
f 5/13/4 6/14/4 2/15/4 1/16/4
f 3/4/5 7/9/5 5/17/5 1/18/5
f 8/10/6 4/3/6 2/19/6 6/20/6
