# Blender v3.4.0 OBJ File: 'HCC_Blender.blend'
# www.blender.org
mtllib Bookshelf_13_01.mtl
o Bookshelf_13_01_Cube.175
v 0.411173 0.000000 0.142224
v 0.411173 1.293812 0.142224
v 0.411173 0.000000 -0.142224
v 0.411173 1.293812 -0.142224
v -0.411175 0.000000 0.142224
v -0.411175 1.293812 0.142224
v -0.411175 0.000000 -0.142224
v -0.411175 1.293812 -0.142224
vt 0.575195 0.585938
vt 0.575195 0.709961
vt 0.602539 0.709961
vt 0.602539 0.585938
vt 0.469727 0.585938
vt 0.469727 0.709961
vt 0.497070 0.709961
vt 0.497070 0.585938
vt 0.497070 0.682617
vt 0.575195 0.682617
vt 0.548761 0.833984
vt 0.469727 0.833984
vt 0.469727 0.709961
vt 0.548761 0.709961
vt 0.575195 0.613281
vt 0.497070 0.613281
vn 1.0000 0.0000 0.0000
vn -1.0000 0.0000 0.0000
vn 0.0000 1.0000 0.0000
vn 0.0000 0.0000 1.0000
vn 0.0000 0.0000 -1.0000
vn 0.0000 -1.0000 0.0000
usemtl Pixel_Grid_1024.019
s off
f 3/1/1 4/2/1 2/3/1 1/4/1
f 5/5/2 6/6/2 8/7/2 7/8/2
f 4/2/3 8/7/3 6/9/3 2/10/3
f 2/11/4 6/12/4 5/13/4 1/14/4
f 4/2/5 3/1/5 7/8/5 8/7/5
f 7/8/6 3/1/6 1/15/6 5/16/6
