# Blender v3.4.0 OBJ File: 'HCC_Blender.blend'
# www.blender.org
mtllib Bookshelf_08.mtl
o Bookshelf_08_Cube.161
v -0.812936 0.000000 0.142224
v -0.812936 1.304393 0.142224
v -0.812936 0.000000 -0.142224
v -0.812936 1.304393 -0.142224
v 0.812936 0.000000 0.142224
v 0.812936 1.304393 0.142224
v 0.812936 0.000000 -0.142224
v 0.812936 1.304393 -0.142224
v 0.000000 1.304393 0.142224
v 0.000000 0.000000 0.142224
v 0.000000 1.304393 -0.142224
v 0.000000 0.000000 -0.142224
vt 0.408203 0.708984
vt 0.408203 0.833984
vt 0.380859 0.833984
vt 0.380859 0.708984
vt 0.346680 0.833984
vt 0.407227 0.833984
vt 0.407227 0.708984
vt 0.346680 0.708984
vt 0.373047 0.708984
vt 0.373047 0.833984
vt 0.345703 0.833984
vt 0.345703 0.708984
vt 0.267578 0.833984
vt 0.267578 0.708984
vt 0.467773 0.833984
vt 0.406738 0.833984
vt 0.406738 0.806641
vt 0.467773 0.806641
vt 0.345703 0.833984
vt 0.345703 0.806641
vt 0.406738 0.708984
vt 0.467773 0.708984
vt 0.467773 0.736328
vt 0.406738 0.736328
vt 0.189453 0.833984
vt 0.189453 0.708984
vt 0.345703 0.708984
vt 0.345703 0.736328
vn -1.0000 0.0000 0.0000
vn 0.0000 0.0000 -1.0000
vn 1.0000 0.0000 0.0000
vn 0.0000 0.0000 1.0000
vn 0.0000 1.0000 -0.0000
vn 0.0000 -1.0000 0.0000
usemtl Pixel_Grid_1024.008
s off
f 1/1/1 2/2/1 4/3/1 3/4/1
f 4/5/2 11/6/2 12/7/2 3/8/2
f 7/9/3 8/10/3 6/11/3 5/12/3
f 6/11/4 9/13/4 10/14/4 5/12/4
f 8/15/5 11/16/5 9/17/5 6/18/5
f 11/16/5 4/19/5 2/20/5 9/17/5
f 12/21/6 7/22/6 5/23/6 10/24/6
f 9/13/4 2/25/4 1/26/4 10/14/4
f 11/6/2 8/15/2 7/22/2 12/7/2
f 3/27/6 12/21/6 10/24/6 1/28/6
