# Blender v3.4.0 OBJ File: 'HCC_Blender.blend'
# www.blender.org
mtllib Book_33.mtl
o Book_33_Cube.261
v -0.068512 0.000000 0.107913
v -0.068512 0.026504 0.107913
v -0.068512 0.000000 -0.107913
v -0.068512 0.026504 -0.107913
v 0.068512 0.000000 0.107913
v 0.068512 0.026504 0.107913
v 0.068512 0.000000 -0.107913
v 0.068512 0.026504 -0.107913
vt 0.438477 0.848633
vt 0.432617 0.848633
vt 0.432617 0.898438
vt 0.438477 0.898438
vt 0.476562 0.844727
vt 0.470703 0.844727
vt 0.470703 0.894531
vt 0.476562 0.894531
vt 0.476562 0.898438
vt 0.470703 0.898438
vt 0.470703 0.866211
vt 0.476562 0.866211
vt 0.476562 0.866211
vt 0.470703 0.866211
vt 0.470703 0.898438
vt 0.476562 0.898438
vt 0.432617 0.898438
vt 0.400391 0.898438
vt 0.400391 0.848633
vt 0.432617 0.848633
vt 0.470703 0.898438
vt 0.438477 0.898438
vt 0.438477 0.848633
vt 0.470703 0.848633
vn -1.0000 0.0000 0.0000
vn 1.0000 0.0000 0.0000
vn 0.0000 0.0000 -1.0000
vn 0.0000 0.0000 1.0000
vn 0.0000 -1.0000 0.0000
vn 0.0000 1.0000 0.0000
usemtl Books.079
s off
f 1/1/1 2/2/1 4/3/1 3/4/1
f 7/5/2 8/6/2 6/7/2 5/8/2
f 3/9/3 4/10/3 8/11/3 7/12/3
f 5/13/4 6/14/4 2/15/4 1/16/4
f 3/17/5 7/18/5 5/19/5 1/20/5
f 8/21/6 4/22/6 2/23/6 6/24/6
