# Blender v3.4.0 OBJ File: 'HCC_Blender.blend'
# www.blender.org
mtllib Book_Open_01.mtl
o Book_Open_01_Cube.039
v -0.222773 0.000000 0.132386
v -0.222773 0.008273 0.132386
v -0.222773 0.000000 -0.132386
v -0.222773 0.008273 -0.132386
v 0.222773 0.000000 0.132386
v 0.222773 0.008273 0.132386
v 0.222773 0.000000 -0.132386
v 0.222773 0.008273 -0.132386
vt 0.503906 0.825195
vt 0.504883 0.825195
vt 0.504883 0.886719
vt 0.503906 0.886719
vt 0.606445 0.886719
vt 0.605469 0.886719
vt 0.605469 0.825195
vt 0.606445 0.825195
vt 0.606445 0.886719
vt 0.503906 0.886719
vt 0.503906 0.825195
vt 0.606445 0.825195
vt 0.606445 0.947266
vt 0.503906 0.947266
vt 0.503906 0.886719
vt 0.606445 0.886719
vt 0.503906 0.885742
vt 0.606445 0.885742
vt 0.503906 0.826172
vt 0.606445 0.826172
vt 0.606445 0.825195
vt 0.503906 0.825195
vn -1.0000 0.0000 0.0000
vn 1.0000 0.0000 0.0000
vn 0.0000 1.0000 0.0000
vn 0.0000 -1.0000 0.0000
vn 0.0000 0.0000 1.0000
vn 0.0000 0.0000 -1.0000
usemtl Books
s off
f 1/1/1 2/2/1 4/3/1 3/4/1
f 7/5/2 8/6/2 6/7/2 5/8/2
f 8/9/3 4/10/3 2/11/3 6/12/3
f 3/13/4 7/14/4 5/15/4 1/16/4
f 6/17/5 2/18/5 1/16/5 5/15/5
f 4/19/6 8/20/6 7/21/6 3/22/6
