# Blender v3.4.0 OBJ File: 'HCC_Blender.blend'
# www.blender.org
mtllib Bookshelf_06.mtl
o Bookshelf_06_Cube.159
v -0.487747 0.000000 0.142224
v -0.487747 0.813906 0.142224
v -0.487747 0.000000 -0.142224
v -0.487747 0.813906 -0.142224
v 0.487747 0.000000 0.142224
v 0.487747 0.813906 0.142224
v 0.487747 0.000000 -0.142224
v 0.487747 0.813906 -0.142224
v 0.000000 0.000000 -0.142224
v 0.000000 0.813906 -0.142224
v 0.000000 0.000000 0.142224
v 0.000000 0.813906 0.142224
vt 0.345703 0.921875
vt 0.345703 1.000000
vt 0.318359 1.000000
vt 0.318359 0.921875
vt 0.330078 0.921840
vt 0.330078 1.000000
vt 0.283203 1.000000
vt 0.283203 0.921840
vt 0.311523 0.921875
vt 0.311523 1.000000
vt 0.284180 1.000000
vt 0.284180 0.921875
vt 0.236816 0.921840
vt 0.236816 1.000000
vt 0.189453 1.000000
vt 0.189453 0.921840
vt 0.298828 0.921875
vt 0.345703 0.921875
vt 0.345703 0.949219
vt 0.298828 0.949219
vt 0.283203 1.000000
vt 0.283203 0.972656
vt 0.330078 0.972656
vt 0.345703 1.000000
vt 0.298828 1.000000
vt 0.298828 0.972656
vt 0.345703 0.972656
vt 0.284180 0.921875
vt 0.331055 0.921875
vt 0.331055 0.949219
vt 0.284180 0.949219
vt 0.284180 0.921840
vt 0.345703 0.921875
vt 0.345703 1.000000
vn -1.0000 0.0000 0.0000
vn 0.0000 0.0000 -1.0000
vn 1.0000 0.0000 0.0000
vn 0.0000 0.0000 1.0000
vn 0.0000 -1.0000 0.0000
vn 0.0000 1.0000 0.0000
usemtl Pixel_Grid_1024.006
s off
f 1/1/1 2/2/1 4/3/1 3/4/1
f 9/5/2 10/6/2 8/7/2 7/8/2
f 7/9/3 8/10/3 6/11/3 5/12/3
f 11/13/4 12/14/4 2/15/4 1/16/4
f 9/17/5 7/18/5 5/19/5 11/20/5
f 10/6/6 4/21/6 2/22/6 12/23/6
f 8/24/6 10/25/6 12/26/6 6/27/6
f 3/28/5 9/29/5 11/30/5 1/31/5
f 5/32/4 6/11/4 12/14/4 11/13/4
f 3/33/2 4/34/2 10/25/2 9/17/2
