# Blender v3.4.0 OBJ File: 'HCC_Blender.blend'
# www.blender.org
mtllib Bookshelf_04.mtl
o Bookshelf_04_Cube.157
v -0.646654 0.000000 0.142224
v -0.646654 0.785009 0.142224
v -0.646654 0.000000 -0.142224
v -0.646654 0.785009 -0.142224
v 0.646654 0.000000 0.142224
v 0.646654 0.785009 0.142224
v 0.646654 0.000000 -0.142224
v 0.646654 0.785009 -0.142224
v -0.000000 0.785009 0.142224
v 0.000000 0.000000 0.142224
v 0.000000 0.785009 -0.142224
v -0.000000 0.000000 -0.142224
vt 0.151367 0.583008
vt 0.151367 0.658203
vt 0.124023 0.658203
vt 0.124023 0.583008
vt 0.187500 0.658203
vt 0.140625 0.658203
vt 0.140625 0.630859
vt 0.187500 0.630859
vt 0.187500 0.583008
vt 0.160156 0.658203
vt 0.160156 0.583008
vt 0.171875 0.583008
vt 0.171875 0.658203
vt 0.125000 0.658203
vt 0.125000 0.583008
vt 0.062012 0.583008
vt 0.062012 0.658203
vt -0.000000 0.658203
vt -0.000000 0.583008
vt 0.140625 0.583008
vt 0.187500 0.610352
vt 0.140625 0.610352
vt 0.187500 0.583008
vt 0.187500 0.658203
vt 0.141113 0.658203
vt 0.141113 0.583008
vt 0.124023 0.583008
vt 0.124023 0.658203
vt 0.170898 0.583008
vt 0.170898 0.610352
vt 0.124023 0.610352
vt 0.125000 0.658203
vt 0.125000 0.630859
vt 0.171875 0.630859
vn -1.0000 0.0000 0.0000
vn 0.0000 1.0000 0.0000
vn 1.0000 0.0000 0.0000
vn 0.0000 0.0000 -1.0000
vn 0.0000 0.0000 1.0000
vn 0.0000 -1.0000 0.0000
usemtl Pixel_Grid_1024.004
s off
f 1/1/1 2/2/1 4/3/1 3/4/1
f 8/5/2 11/6/2 9/7/2 6/8/2
f 7/9/3 8/5/3 6/10/3 5/11/3
f 12/12/4 11/13/4 8/14/4 7/15/4
f 10/16/5 9/17/5 2/18/5 1/19/5
f 12/20/6 7/9/6 5/21/6 10/22/6
f 3/23/4 4/24/4 11/25/4 12/26/4
f 5/27/5 6/28/5 9/17/5 10/16/5
f 3/4/6 12/29/6 10/30/6 1/31/6
f 11/13/2 4/32/2 2/33/2 9/34/2
