# Blender v3.4.0 OBJ File: 'HCC_Blender.blend'
# www.blender.org
mtllib Bookshelf_09.mtl
o Bookshelf_09_Cube.162
v -0.812936 0.000000 0.142224
v -0.812936 0.692502 0.142224
v -0.812936 0.000000 -0.142224
v -0.812936 0.692502 -0.142224
v 0.812936 0.000000 0.142224
v 0.812936 0.692502 0.142224
v 0.812936 0.000000 -0.142224
v 0.812936 0.692502 -0.142224
v 0.000000 0.692502 0.142224
v 0.000000 0.000000 0.142224
v 0.000000 0.692502 -0.142224
v 0.000000 0.000000 -0.142224
vt 0.467773 0.640625
vt 0.467773 0.707031
vt 0.440430 0.707031
vt 0.440430 0.640625
vt 0.345703 0.707031
vt 0.406250 0.707031
vt 0.406250 0.640625
vt 0.345703 0.640625
vt 0.373047 0.640625
vt 0.373047 0.706988
vt 0.345703 0.706988
vt 0.345703 0.640625
vt 0.267578 0.706988
vt 0.267578 0.640625
vt 0.467773 0.707031
vt 0.407227 0.707031
vt 0.407227 0.679688
vt 0.467773 0.679688
vt 0.345703 0.679688
vt 0.407227 0.640625
vt 0.467773 0.640625
vt 0.467773 0.667969
vt 0.407227 0.667969
vt 0.189453 0.706988
vt 0.189453 0.640625
vt 0.466797 0.707031
vt 0.466797 0.640625
vt 0.345703 0.667969
vn -1.0000 0.0000 0.0000
vn 0.0000 0.0000 -1.0000
vn 1.0000 0.0000 0.0000
vn 0.0000 0.0000 1.0000
vn 0.0000 1.0000 -0.0000
vn 0.0000 -1.0000 0.0000
usemtl Pixel_Grid_1024.009
s off
f 1/1/1 2/2/1 4/3/1 3/4/1
f 4/5/2 11/6/2 12/7/2 3/8/2
f 7/9/3 8/10/3 6/11/3 5/12/3
f 6/11/4 9/13/4 10/14/4 5/12/4
f 8/15/5 11/16/5 9/17/5 6/18/5
f 11/16/5 4/5/5 2/19/5 9/17/5
f 12/20/6 7/21/6 5/22/6 10/23/6
f 9/13/4 2/24/4 1/25/4 10/14/4
f 11/6/2 8/26/2 7/27/2 12/7/2
f 3/8/6 12/20/6 10/23/6 1/28/6
