# Blender v3.4.0 OBJ File: 'HCC_Blender.blend'
# www.blender.org
mtllib Bookshelf_22.mtl
o Bookshelf_22_Cube.179
v -0.940435 0.000000 0.142224
v -0.940435 2.165980 0.142224
v -0.940435 0.000000 -0.142224
v -0.940435 2.165980 -0.142224
v 0.940435 0.000000 0.142224
v 0.940435 2.165980 0.142224
v 0.940435 0.000000 -0.142224
v 0.940435 2.165980 -0.142224
vt 0.996094 0.000000
vt 0.996094 0.211914
vt 0.968750 0.211914
vt 0.968750 0.000000
vt 0.814453 0.000000
vt 0.814453 0.211914
vt 0.996094 0.211914
vt 0.996094 0.000000
vt 0.809570 0.000000
vt 0.809570 0.211914
vt 0.836914 0.211914
vt 0.836914 0.000000
vt 0.806583 0.000000
vt 0.806583 0.211925
vt 0.625000 0.211925
vt 0.625000 0.000000
vt 0.808594 0.000977
vt 0.990234 0.000977
vt 0.990234 0.028320
vt 0.808594 0.028320
vt 0.994141 0.210938
vt 0.812500 0.210938
vt 0.812500 0.183594
vt 0.994141 0.183594
vn -1.0000 0.0000 0.0000
vn 0.0000 0.0000 -1.0000
vn 1.0000 0.0000 0.0000
vn 0.0000 0.0000 1.0000
vn 0.0000 -1.0000 0.0000
vn 0.0000 1.0000 0.0000
usemtl Pixel_Grid_1024.029
s off
f 1/1/1 2/2/1 4/3/1 3/4/1
f 3/5/2 4/6/2 8/7/2 7/8/2
f 7/9/3 8/10/3 6/11/3 5/12/3
f 5/13/4 6/14/4 2/15/4 1/16/4
f 3/17/5 7/18/5 5/19/5 1/20/5
f 8/21/6 4/22/6 2/23/6 6/24/6
