# Blender v3.4.0 OBJ File: 'HCC_Blender.blend'
# www.blender.org
mtllib Book_07.mtl
o Book_07_Cube.185
v -0.073856 0.000000 0.128176
v -0.073856 0.058624 0.128176
v -0.073856 0.000000 -0.128176
v -0.073856 0.058624 -0.128176
v 0.073856 0.000000 0.128176
v 0.073856 0.058624 0.128176
v 0.073856 0.000000 -0.128176
v 0.073856 0.058624 -0.128176
vt 0.159180 0.874023
vt 0.145508 0.874023
vt 0.145508 0.814453
vt 0.159180 0.814453
vt 0.207031 0.874023
vt 0.193359 0.874023
vt 0.193359 0.814453
vt 0.207031 0.814453
vt 0.207031 0.810547
vt 0.193359 0.810547
vt 0.193359 0.844727
vt 0.207031 0.844727
vt 0.207031 0.844727
vt 0.193359 0.844727
vt 0.193359 0.810547
vt 0.207031 0.810547
vt 0.145508 0.814453
vt 0.111328 0.814453
vt 0.111328 0.874023
vt 0.145508 0.874023
vt 0.159180 0.874023
vt 0.159180 0.814453
vn -1.0000 0.0000 0.0000
vn 1.0000 0.0000 0.0000
vn 0.0000 0.0000 -1.0000
vn 0.0000 0.0000 1.0000
vn 0.0000 -1.0000 0.0000
vn 0.0000 1.0000 0.0000
usemtl Books.008
s off
f 1/1/1 2/2/1 4/3/1 3/4/1
f 7/5/2 8/6/2 6/7/2 5/8/2
f 3/9/3 4/10/3 8/11/3 7/12/3
f 5/13/4 6/14/4 2/15/4 1/16/4
f 3/17/5 7/18/5 5/19/5 1/20/5
f 8/6/6 4/21/6 2/22/6 6/7/6
