# Blender 3.4.0
# www.blender.org
o origin_arrows
v 0.179470 0.000000 -1.109621
v 0.179470 0.000000 -1.161283
v -0.119166 0.000000 -1.288550
v -0.119166 0.000000 -1.233737
v 0.117726 0.000000 -1.135452
v -0.119166 0.000000 -1.037167
v -0.119166 0.000000 -0.982354
v -0.025831 0.000000 -1.371587
v 0.025831 0.000000 -1.371587
v 0.153098 0.000000 -1.670223
v 0.098285 0.000000 -1.670223
v -0.000000 0.000000 -1.433330
v -0.098285 0.000000 -1.670223
v -0.153098 0.000000 -1.670223
vn -0.0000 1.0000 -0.0000
vt 0.000000 0.000000
vt 0.166667 0.000000
vt 0.333333 0.000000
vt 0.500000 0.000000
vt 0.666667 0.000000
vt 0.833333 0.000000
vt 1.000000 0.000000
vt 0.000000 0.000000
vt 0.166667 0.000000
vt 0.333333 0.000000
vt 0.500000 0.000000
vt 0.666667 0.000000
vt 0.833333 0.000000
vt 1.000000 0.000000
s 0
f 4/4/1 2/2/1 3/3/1
f 5/5/1 2/2/1 4/4/1
f 5/5/1 1/1/1 2/2/1
f 6/6/1 1/1/1 5/5/1
f 6/6/1 7/7/1 1/1/1
f 11/11/1 9/9/1 10/10/1
f 12/12/1 9/9/1 11/11/1
f 12/12/1 8/8/1 9/9/1
f 13/13/1 8/8/1 12/12/1
f 13/13/1 14/14/1 8/8/1
o Cardboard_Box_01
v -0.182225 0.000000 0.107191
v -0.182225 0.214383 0.107191
v -0.182225 0.000000 -0.107191
v -0.182225 0.214383 -0.107191
v 0.182225 0.000000 0.107191
v 0.182225 0.214383 0.107191
v 0.182225 0.000000 -0.107191
v 0.182225 0.214383 -0.107191
vn -1.0000 -0.0000 -0.0000
vn -0.0000 -0.0000 -1.0000
vn 1.0000 -0.0000 -0.0000
vn -0.0000 -0.0000 1.0000
vn -0.0000 -1.0000 -0.0000
vn -0.0000 1.0000 -0.0000
vt 0.937500 0.859375
vt 0.402344 0.859375
vt 0.609375 0.738281
vt 0.937500 0.980469
vt 0.402344 0.980469
vt 0.609375 0.738281
vt 0.816406 0.859375
vt 0.609375 0.859375
vt 0.816406 0.980469
vt 0.609375 0.859375
vt 0.937500 0.738281
vt 0.609375 0.859375
vt 0.402344 0.738281
vt 0.609375 0.980469
vt 0.816406 0.738281
vt 0.609375 0.859375
vt 0.937500 0.859375
vt 0.402344 0.859375
vt 0.609375 0.980469
vt 0.816406 0.859375
s 0
f 15/15/2 16/18/2 18/23/2 17/21/2
f 17/21/3 18/23/3 22/33/3 21/30/3
f 21/31/4 22/34/4 20/29/4 19/25/4
f 19/26/5 20/28/5 16/19/5 15/16/5
f 17/22/6 21/32/6 19/27/6 15/17/6
f 22/34/7 18/24/7 16/20/7 20/29/7
o Bookshelf_25
v -0.630580 0.020025 0.142224
v -0.630580 1.592995 0.142224
v -0.650606 0.000000 -0.142224
v -0.650606 1.613020 -0.142224
v 0.630583 0.020025 0.142224
v 0.630583 1.592995 0.142224
v 0.650608 0.000000 -0.142224
v 0.650608 1.613020 -0.142224
v -0.650606 0.000000 0.142224
v -0.650606 1.613020 0.142224
v 0.650608 1.613020 0.142224
v 0.650608 0.000000 0.142224
v -0.630580 0.020025 0.142224
v -0.630580 1.592995 0.142224
v 0.630583 1.592995 0.142224
v 0.630583 0.020025 0.142224
v -0.630580 0.020025 -0.097409
v -0.630580 1.592995 -0.097409
v 0.630583 1.592995 -0.097409
v 0.630583 0.020025 -0.097409
v -0.630580 0.353955 0.142224
v 0.630583 0.353955 0.142224
v -0.630580 0.353955 -0.097409
v 0.630583 0.353955 -0.097409
v -0.630580 0.334652 0.142224
v 0.630583 0.334652 0.142224
v -0.630580 0.334652 -0.097409
v 0.630583 0.334652 -0.097409
v -0.630580 0.668582 0.142224
v 0.630583 0.668582 0.142224
v -0.630580 0.668582 -0.097409
v 0.630583 0.668582 -0.097409
v -0.630580 0.649279 0.142224
v 0.630583 0.649279 0.142224
v -0.630580 0.649279 -0.097409
v 0.630583 0.649279 -0.097409
v -0.630580 0.983209 0.142224
v 0.630583 0.983209 0.142224
v -0.630580 0.983209 -0.097409
v 0.630583 0.983209 -0.097409
v -0.630580 0.963907 0.142224
v 0.630583 0.963907 0.142224
v -0.630580 0.963907 -0.097409
v 0.630583 0.963907 -0.097409
v -0.630580 1.297836 0.142224
v 0.630583 1.297836 0.142224
v -0.630580 1.297836 -0.097409
v 0.630583 1.297836 -0.097409
v -0.630580 1.278534 0.142224
v 0.630583 1.278534 0.142224
v -0.630580 1.278534 -0.097409
v 0.630583 1.278534 -0.097409
vn -1.0000 -0.0000 -0.0000
vn -0.0000 -0.0000 1.0000
vn 1.0000 -0.0000 -0.0000
vn -0.0000 1.0000 -0.0000
vn -0.0000 -0.0000 -1.0000
vn -0.0000 -1.0000 -0.0000
vt 0.441406 0.001953
vt 0.441406 0.152344
vt 0.440430 0.113281
vt 0.439453 0.000977
vt 0.439453 0.155273
vt 0.439453 0.181641
vt 0.440430 0.267578
vt 0.562500 0.001953
vt 0.562500 0.152344
vt 0.591797 0.000977
vt 0.565430 0.113281
vt 0.564453 0.000977
vt 0.591797 0.154297
vt 0.564453 0.181641
vt 0.565430 0.267578
vt 0.466797 0.000977
vt 0.439453 0.000000
vt 0.439453 0.028320
vt 0.466797 0.155273
vt 0.439453 0.154297
vt 0.564453 0.154297
vt 0.564453 0.000977
vt 0.564453 0.000000
vt 0.564453 0.028320
vt 0.441406 0.001953
vt 0.441406 0.000000
vt 0.439453 0.001953
vt 0.562500 0.123047
vt 0.441406 0.152344
vt 0.439453 0.152344
vt 0.562500 0.152344
vt 0.441406 0.123047
vt 0.591797 0.152344
vt 0.562500 0.001953
vt 0.591797 0.001953
vt 0.562500 0.000000
vt 0.441406 0.001953
vt 0.441406 0.027344
vt 0.463867 0.001953
vt 0.562500 0.150391
vt 0.441406 0.152344
vt 0.463867 0.152344
vt 0.441406 0.150391
vt 0.567383 0.152344
vt 0.562500 0.152344
vt 0.567383 0.001953
vt 0.562500 0.001953
vt 0.562500 0.027344
vt 0.450195 0.030273
vt 0.450195 0.028320
vt 0.571289 0.030273
vt 0.571289 0.028320
vt 0.450195 0.057617
vt 0.571289 0.057617
vt 0.450195 0.000977
vt 0.450195 0.030273
vt 0.571289 0.000977
vt 0.571289 0.030273
vt 0.450195 0.028320
vt 0.571289 0.028320
vt 0.450195 0.107422
vt 0.450195 0.105469
vt 0.571289 0.107422
vt 0.571289 0.105469
vt 0.450195 0.134766
vt 0.571289 0.134766
vt 0.450195 0.078125
vt 0.450195 0.107422
vt 0.571289 0.078125
vt 0.571289 0.107422
vt 0.450195 0.105469
vt 0.571289 0.105469
vt 0.449219 0.170898
vt 0.449219 0.168945
vt 0.570312 0.170898
vt 0.570312 0.168945
vt 0.449219 0.198242
vt 0.570312 0.198242
vt 0.449219 0.141602
vt 0.449219 0.170898
vt 0.570312 0.141602
vt 0.570312 0.170898
vt 0.449219 0.168945
vt 0.570312 0.168945
vt 0.450195 0.239258
vt 0.450195 0.237305
vt 0.571289 0.239258
vt 0.571289 0.237305
vt 0.450195 0.266602
vt 0.571289 0.266602
vt 0.450195 0.209961
vt 0.450195 0.239258
vt 0.571289 0.209961
vt 0.571289 0.239258
vt 0.450195 0.237305
vt 0.571289 0.237305
s 0
f 31/50/8 32/53/8 26/39/8 25/38/8
f 27/42/9 23/35/9 31/51/9 34/57/9
f 29/44/10 30/47/10 33/55/10 34/56/10
f 27/42/11 28/43/11 37/65/11 38/68/11
f 30/48/11 26/40/11 32/54/11 33/55/11
f 30/49/12 29/45/12 25/37/12 26/41/12
f 27/42/11 38/68/11 35/59/11 23/35/11
f 23/35/9 24/36/9 32/54/9 31/51/9
f 28/43/9 27/42/9 34/57/9 33/55/9
f 24/36/9 28/43/9 33/55/9 32/54/9
f 28/43/11 24/36/11 36/63/11 37/65/11
f 36/62/13 40/74/13 41/77/13 37/66/13
f 38/69/8 37/67/8 41/78/8 42/80/8
f 41/79/9 40/75/9 39/71/9 42/81/9
f 24/36/11 23/35/11 35/59/11 36/63/11
f 38/70/11 42/82/11 39/72/11 35/60/11
f 36/64/10 35/61/10 39/73/10 40/76/10
f 25/38/13 29/46/13 34/58/13 31/52/13
f 44/85/11 46/88/11 45/87/11 43/83/11
f 48/91/13 47/89/13 49/93/13 50/94/13
f 43/84/9 47/90/9 48/92/9 44/86/9
f 52/97/11 54/100/11 53/99/11 51/95/11
f 56/103/13 55/101/13 57/105/13 58/106/13
f 51/96/9 55/102/9 56/104/9 52/98/9
f 60/109/11 62/112/11 61/111/11 59/107/11
f 64/115/13 63/113/13 65/117/13 66/118/13
f 59/108/9 63/114/9 64/116/9 60/110/9
f 68/121/11 70/124/11 69/123/11 67/119/11
f 72/127/13 71/125/13 73/129/13 74/130/13
f 67/120/9 71/126/9 72/128/9 68/122/9
