# Blender v3.4.0 OBJ File: 'HCC_Blender.blend'
# www.blender.org
mtllib Book_09.mtl
o Book_09_Cube.188
v -0.081831 0.000000 0.111505
v -0.081831 0.029990 0.111505
v -0.081831 0.000000 -0.111505
v -0.081831 0.029990 -0.111505
v 0.081830 0.000000 0.111505
v 0.081830 0.029990 0.111505
v 0.081830 0.000000 -0.111505
v 0.081830 0.029990 -0.111505
vt 0.157227 0.742188
vt 0.150391 0.742188
vt 0.150391 0.690430
vt 0.157227 0.690430
vt 0.202148 0.742188
vt 0.195312 0.742188
vt 0.195312 0.690430
vt 0.202148 0.690430
vt 0.202148 0.686523
vt 0.195312 0.686523
vt 0.195312 0.724609
vt 0.202148 0.724609
vt 0.202148 0.724609
vt 0.195312 0.724609
vt 0.195312 0.686523
vt 0.202148 0.686523
vt 0.149414 0.690430
vt 0.111328 0.690430
vt 0.111328 0.742188
vt 0.149414 0.742188
vt 0.157227 0.742188
vt 0.157227 0.690430
vn -1.0000 0.0000 0.0000
vn 1.0000 0.0000 0.0000
vn 0.0000 0.0000 -1.0000
vn 0.0000 0.0000 1.0000
vn 0.0000 -1.0000 0.0000
vn 0.0000 1.0000 0.0000
usemtl Books.010
s off
f 1/1/1 2/2/1 4/3/1 3/4/1
f 7/5/2 8/6/2 6/7/2 5/8/2
f 3/9/3 4/10/3 8/11/3 7/12/3
f 5/13/4 6/14/4 2/15/4 1/16/4
f 3/17/5 7/18/5 5/19/5 1/20/5
f 8/6/6 4/21/6 2/22/6 6/7/6
