# Blender v3.4.0 OBJ File: 'HCC_Blender.blend'
# www.blender.org
mtllib Bookshelf_19.mtl
o Bookshelf_19_Cube.172
v -0.333747 0.000000 0.142224
v -0.333747 0.958098 0.142224
v -0.333747 0.000000 -0.142224
v -0.333747 0.958098 -0.142224
v 0.333747 0.000000 0.142224
v 0.333747 0.958098 0.142224
v 0.333747 0.000000 -0.142224
v 0.333747 0.958098 -0.142224
vt 0.886719 0.587891
vt 0.886719 0.680664
vt 0.914062 0.680664
vt 0.914062 0.587891
vt 0.850586 0.680664
vt 0.850586 0.587891
vt 0.851562 0.587891
vt 0.851562 0.680664
vt 0.878906 0.680664
vt 0.878906 0.587891
vt 0.850586 0.587891
vt 0.850586 0.680664
vt 0.788086 0.680719
vt 0.788086 0.587891
vt 0.850586 0.587891
vt 0.914062 0.587891
vt 0.914062 0.615234
vt 0.850586 0.615234
vt 0.914062 0.680664
vt 0.850586 0.680664
vt 0.850586 0.653320
vt 0.914062 0.653320
vn -1.0000 0.0000 0.0000
vn 0.0000 0.0000 -1.0000
vn 1.0000 0.0000 0.0000
vn 0.0000 0.0000 1.0000
vn 0.0000 -1.0000 0.0000
vn 0.0000 1.0000 0.0000
usemtl Pixel_Grid_1024.026
s off
f 1/1/1 2/2/1 4/3/1 3/4/1
f 3/4/2 4/3/2 8/5/2 7/6/2
f 7/7/3 8/8/3 6/9/3 5/10/3
f 5/11/4 6/12/4 2/13/4 1/14/4
f 3/15/5 7/16/5 5/17/5 1/18/5
f 8/19/6 4/20/6 2/21/6 6/22/6
