# Blender v3.4.0 OBJ File: 'HCC_Blender.blend'
# www.blender.org
mtllib Bookshelf_24.mtl
o Bookshelf_24_Cube.194
v -0.191948 0.000000 0.142224
v -0.191948 0.957387 0.142224
v -0.191948 0.000000 -0.142224
v -0.191948 0.957387 -0.142224
v 0.191947 0.000000 -0.142224
v 0.191947 0.957387 -0.142224
v 0.191947 0.000000 0.142224
v 0.191947 0.957387 0.142224
vt 0.971680 0.906250
vt 0.971680 1.000000
vt 0.944336 1.000000
vt 0.944336 0.906250
vt 0.943359 0.906250
vt 0.943359 1.000000
vt 0.906250 1.000000
vt 0.906250 0.906250
vt 0.982422 1.000000
vt 0.945312 1.000000
vt 0.945312 0.972656
vt 0.982422 0.972656
vt 0.945312 0.906250
vt 0.982422 0.906250
vt 0.982422 0.933594
vt 0.945312 0.933594
vt 0.955078 1.000000
vt 0.955078 0.906250
vn -1.0000 0.0000 0.0000
vn 0.0000 0.0000 1.0000
vn 0.0000 1.0000 0.0000
vn 0.0000 -1.0000 0.0000
vn 0.0000 0.0000 -1.0000
vn 1.0000 0.0000 0.0000
usemtl Pixel_Grid_1024.036
s off
f 1/1/1 2/2/1 4/3/1 3/4/1
f 7/5/2 8/6/2 2/7/2 1/8/2
f 6/9/3 4/10/3 2/11/3 8/12/3
f 3/13/4 5/14/4 7/15/4 1/16/4
f 3/13/5 4/10/5 6/9/5 5/14/5
f 5/14/6 6/9/6 8/17/6 7/18/6
