# Blender v3.4.0 OBJ File: 'HCC_Blender.blend'
# www.blender.org
mtllib Bookshelf_13_02.mtl
o Bookshelf_13_02_Cube.169
v -0.411914 0.000000 0.142224
v -0.411914 1.293812 0.142224
v 0.411910 0.000000 -0.142224
v -0.411914 0.000000 -0.142224
v 0.411910 0.000000 0.142224
v -0.411914 1.293812 -0.142224
v 0.411910 1.293812 0.142224
v 0.411910 1.293812 -0.142224
vt 0.548828 0.585938
vt 0.548828 0.709961
vt 0.576172 0.709961
vt 0.576172 0.585938
vt 0.655273 0.585938
vt 0.655273 0.613281
vt 0.576172 0.613281
vt 0.655273 0.709961
vt 0.627937 0.833984
vt 0.548761 0.833984
vt 0.548761 0.709961
vt 0.627937 0.709961
vt 0.576172 0.682617
vt 0.655273 0.682617
vt 0.682617 0.709961
vt 0.682617 0.585938
vn -1.0000 0.0000 0.0000
vn 0.0000 -1.0000 0.0000
vn 0.0000 0.0000 -1.0000
vn 0.0000 0.0000 1.0000
vn 0.0000 1.0000 0.0000
vn 1.0000 0.0000 0.0000
usemtl Pixel_Grid_1024.014
s off
f 1/1/1 2/2/1 6/3/1 4/4/1
f 4/4/2 3/5/2 5/6/2 1/7/2
f 8/8/3 3/5/3 4/4/3 6/3/3
f 7/9/4 2/10/4 1/11/4 5/12/4
f 8/8/5 6/3/5 2/13/5 7/14/5
f 3/5/6 8/8/6 7/15/6 5/16/6
