# Blender v3.4.0 OBJ File: 'HCC_Blender.blend'
# www.blender.org
mtllib Book_13.mtl
o Book_13_Cube.220
v -0.069683 0.000000 0.107123
v -0.069683 0.016915 0.107123
v -0.069683 0.000000 -0.107123
v -0.069683 0.016915 -0.107123
v 0.069683 0.000000 0.107123
v 0.069683 0.016915 0.107123
v 0.069683 0.000000 -0.107123
v 0.069683 0.016915 -0.107123
vt 0.036133 0.568359
vt 0.032227 0.568359
vt 0.032227 0.618164
vt 0.036133 0.618164
vt 0.072266 0.618164
vt 0.068359 0.618164
vt 0.068359 0.568359
vt 0.072266 0.568359
vt 0.072266 0.564453
vt 0.068359 0.564453
vt 0.068359 0.596680
vt 0.072266 0.596680
vt 0.072266 0.596680
vt 0.068359 0.596680
vt 0.068359 0.564453
vt 0.072266 0.564453
vt 0.032227 0.618164
vt 0.000000 0.618164
vt 0.000000 0.568359
vt 0.032227 0.568359
vt 0.036133 0.618164
vt 0.036133 0.568359
vn -1.0000 0.0000 0.0000
vn 1.0000 0.0000 0.0000
vn 0.0000 0.0000 -1.0000
vn 0.0000 0.0000 1.0000
vn 0.0000 -1.0000 0.0000
vn 0.0000 1.0000 0.0000
usemtl Books.005
s off
f 1/1/1 2/2/1 4/3/1 3/4/1
f 7/5/2 8/6/2 6/7/2 5/8/2
f 3/9/3 4/10/3 8/11/3 7/12/3
f 5/13/4 6/14/4 2/15/4 1/16/4
f 3/17/5 7/18/5 5/19/5 1/20/5
f 8/6/6 4/21/6 2/22/6 6/7/6
