# Blender v3.4.0 OBJ File: 'HCC_Blender.blend'
# www.blender.org
mtllib Book_02.mtl
o Book_02_Cube.180
v -0.092435 0.000000 0.134375
v -0.092435 0.054159 0.134375
v -0.092435 0.000000 -0.134375
v -0.092435 0.054159 -0.134375
v 0.087996 0.000000 0.134375
v 0.087996 0.054159 0.134375
v 0.087996 0.000000 -0.134375
v 0.087996 0.054159 -0.134375
v -0.087996 0.000000 -0.134375
v -0.087996 0.054159 -0.134375
v -0.087996 0.000000 0.134375
v -0.087996 0.054159 0.134375
vt 0.054688 0.869141
vt 0.068359 0.869141
vt 0.068359 0.931641
vt 0.054688 0.931641
vt 0.012695 0.934570
vt 0.000000 0.934570
vt 0.000000 0.893555
vt 0.012695 0.893555
vt 0.000000 0.931641
vt 0.012695 0.931641
vt 0.012695 0.869141
vt 0.000000 0.869141
vt 0.012695 0.935547
vt 0.000000 0.935547
vt 0.000000 0.934570
vt 0.012695 0.934570
vt 0.053711 0.931641
vt 0.012695 0.931641
vt 0.012695 0.869141
vt 0.053711 0.869141
vt 0.068359 0.931641
vt 0.067383 0.931641
vt 0.067383 0.869141
vt 0.068359 0.869141
vt 0.109375 0.931641
vt 0.109375 0.869141
vt 0.012695 0.893555
vt 0.000000 0.893555
vt 0.000000 0.934570
vt 0.012695 0.934570
vt 0.000000 0.934570
vt 0.012695 0.934570
vt 0.012695 0.935547
vt 0.000000 0.935547
vn -1.0000 0.0000 0.0000
vn 0.0000 0.0000 -1.0000
vn 1.0000 0.0000 0.0000
vn 0.0000 0.0000 1.0000
vn 0.0000 -1.0000 0.0000
vn 0.0000 1.0000 0.0000
usemtl Books.001
s off
f 1/1/1 2/2/1 4/3/1 3/4/1
f 9/5/2 10/6/2 8/7/2 7/8/2
f 7/9/3 8/10/3 6/11/3 5/12/3
f 11/13/4 12/14/4 2/15/4 1/16/4
f 9/17/5 7/18/5 5/19/5 11/20/5
f 10/21/6 4/22/6 2/23/6 12/24/6
f 8/25/6 10/21/6 12/24/6 6/26/6
f 3/4/5 9/17/5 11/20/5 1/1/5
f 5/27/4 6/28/4 12/29/4 11/30/4
f 3/31/2 4/32/2 10/33/2 9/34/2
