# Blender v3.4.0 OBJ File: 'HCC_Blender.blend'
# www.blender.org
mtllib Book_Open_05.mtl
o Book_Open_05_Cube.266
v -0.178274 0.000000 0.128522
v -0.178274 0.004132 0.128522
v -0.178274 0.000000 -0.128522
v -0.178274 0.004132 -0.128522
v 0.178274 0.000000 0.128522
v 0.178274 0.004132 0.128522
v 0.178274 0.000000 -0.128522
v 0.178274 0.004132 -0.128522
vt 0.111328 0.814453
vt 0.112305 0.814453
vt 0.112305 0.874023
vt 0.111328 0.874023
vt 0.193359 0.874023
vt 0.192383 0.874023
vt 0.192383 0.814453
vt 0.193359 0.814453
vt 0.082031 0.457031
vt -0.000000 0.457031
vt -0.000000 0.397461
vt 0.082031 0.397461
vt 0.193359 0.874023
vt 0.111328 0.874023
vt 0.111328 0.814453
vt 0.193359 0.814453
vt 0.111328 0.873047
vt 0.193359 0.873047
vt 0.193359 0.874023
vt 0.111328 0.874023
vt 0.111328 0.874023
vt 0.193359 0.874023
vt 0.193359 0.873047
vt 0.111328 0.873047
vn -1.0000 0.0000 0.0000
vn 1.0000 0.0000 0.0000
vn 0.0000 1.0000 0.0000
vn 0.0000 -1.0000 0.0000
vn 0.0000 0.0000 1.0000
vn 0.0000 0.0000 -1.0000
usemtl Books.084
s off
f 1/1/1 2/2/1 4/3/1 3/4/1
f 7/5/2 8/6/2 6/7/2 5/8/2
f 8/9/3 4/10/3 2/11/3 6/12/3
f 3/13/4 7/14/4 5/15/4 1/16/4
f 6/17/5 2/18/5 1/19/5 5/20/5
f 4/21/6 8/22/6 7/23/6 3/24/6
