# Blender v3.4.0 OBJ File: 'HCC_Blender.blend'
# www.blender.org
mtllib Book_A_07.mtl
o Book_A_07_Cube.205
v -0.071811 -0.000000 0.107177
v -0.071811 0.021160 0.107177
v -0.071811 -0.000000 -0.107177
v -0.071811 0.021160 -0.107177
v 0.071811 -0.000000 0.107177
v 0.071811 0.021160 0.107177
v 0.071811 -0.000000 -0.107177
v 0.071811 0.021160 -0.107177
vt 0.805664 0.950195
vt 0.800781 0.950195
vt 0.800781 1.000000
vt 0.805664 1.000000
vt 0.843750 1.000000
vt 0.838867 1.000000
vt 0.838867 0.950195
vt 0.843750 0.950195
vt 0.843750 0.946289
vt 0.838867 0.946289
vt 0.838867 0.979492
vt 0.843750 0.979492
vt 0.843750 0.979492
vt 0.838867 0.979492
vt 0.838867 0.946289
vt 0.843750 0.946289
vt 0.800781 1.000000
vt 0.767578 1.000000
vt 0.767578 0.950195
vt 0.800781 0.950195
vt 0.805664 1.000000
vt 0.805664 0.950195
vn -1.0000 0.0000 0.0000
vn 1.0000 0.0000 0.0000
vn 0.0000 0.0000 -1.0000
vn 0.0000 0.0000 1.0000
vn 0.0000 -1.0000 0.0000
vn 0.0000 1.0000 0.0000
usemtl Books.024
s off
f 1/1/1 2/2/1 4/3/1 3/4/1
f 7/5/2 8/6/2 6/7/2 5/8/2
f 3/9/3 4/10/3 8/11/3 7/12/3
f 5/13/4 6/14/4 2/15/4 1/16/4
f 3/17/5 7/18/5 5/19/5 1/20/5
f 8/6/6 4/21/6 2/22/6 6/7/6
