# Blender v3.4.0 OBJ File: 'HCC_Blender.blend'
# www.blender.org
mtllib Bookshelf_07.mtl
o Bookshelf_07_Cube.160
v -0.322171 0.000000 0.142224
v -0.322171 0.864876 0.142224
v -0.322171 0.000000 -0.142224
v -0.322171 0.864876 -0.142224
v 0.322171 0.000000 0.142224
v 0.322171 0.864876 0.142224
v 0.322171 0.000000 -0.142224
v 0.322171 0.864876 -0.142224
vt 0.314453 0.835938
vt 0.314453 0.919922
vt 0.287109 0.919922
vt 0.287109 0.835938
vt 0.279297 0.835938
vt 0.279297 0.919922
vt 0.251953 0.919922
vt 0.251953 0.835938
vt 0.302734 0.835938
vt 0.302734 0.919922
vt 0.261719 0.919922
vt 0.261719 0.835938
vt 0.189453 0.919922
vt 0.189453 0.835938
vt 0.261719 0.835938
vt 0.302734 0.835938
vt 0.302734 0.863281
vt 0.261719 0.863281
vt 0.302734 0.919922
vt 0.261719 0.919922
vt 0.261719 0.892578
vt 0.302734 0.892578
vn -1.0000 0.0000 0.0000
vn 1.0000 0.0000 0.0000
vn 0.0000 0.0000 -1.0000
vn 0.0000 0.0000 1.0000
vn 0.0000 -1.0000 0.0000
vn 0.0000 1.0000 0.0000
usemtl Pixel_Grid_1024.007
s off
f 1/1/1 2/2/1 4/3/1 3/4/1
f 7/5/2 8/6/2 6/7/2 5/8/2
f 3/9/3 4/10/3 8/11/3 7/12/3
f 5/8/4 6/7/4 2/13/4 1/14/4
f 3/15/5 7/16/5 5/17/5 1/18/5
f 8/19/6 4/20/6 2/21/6 6/22/6
